<?xml version="1.0" encoding="UTF-8" standalone="no"?>
<!-- Created with Inkscape (http://www.inkscape.org/) -->

<svg
   version="1.1"
   id="svg2"
   width="512"
   height="512"
   viewBox="0 0 512 512"
   sodipodi:docname="NCRYPTD LOGO (FINAL) REBRAND.svg"
   inkscape:version="1.2.2 (732a01da63, 2022-12-09)"
   xmlns:inkscape="http://www.inkscape.org/namespaces/inkscape"
   xmlns:sodipodi="http://sodipodi.sourceforge.net/DTD/sodipodi-0.dtd"
   xmlns="http://www.w3.org/2000/svg"
   xmlns:svg="http://www.w3.org/2000/svg">
  <defs
     id="defs6" />
  <sodipodi:namedview
     id="namedview4"
     pagecolor="#ffffff"
     bordercolor="#000000"
     borderopacity="0.25"
     inkscape:showpageshadow="2"
     inkscape:pageopacity="0.0"
     inkscape:pagecheckerboard="0"
     inkscape:deskcolor="#d1d1d1"
     showgrid="false"
     inkscape:zoom="0.36253033"
     inkscape:cx="302.04369"
     inkscape:cy="183.43293"
     inkscape:window-width="1366"
     inkscape:window-height="706"
     inkscape:window-x="-8"
     inkscape:window-y="-8"
     inkscape:window-maximized="1"
     inkscape:current-layer="g8" />
  <g
     inkscape:groupmode="layer"
     inkscape:label="Image"
     id="g8">
    <path
       style="fill:#000000"
       d="m 234.64979,511.4289 c -1.65,-0.22742 -8.4,-1.13434 -15,-2.01538 C 166.36741,502.30082 115.5225,476.8897 75.64179,437.44161 11.4259,373.92231 -14.29428,279.85238 8.48449,191.81802 13.1452,173.80551 17.79725,161.49868 27.11984,142.5189 50.97797,93.946343 90.11028,54.062555 138.58307,28.915192 201.8143,-3.8887555 277.59243,-8.8438583 343.70463,15.502372 c 33.32401,12.271776 63.70369,31.330183 89.29204,56.016534 22.72861,21.927427 38.86,43.875704 52.18305,70.999994 12.74628,25.95004 19.84103,48.27094 24.15679,76 2.91084,18.70236 3.14494,55.07766 0.46659,72.5 -6.20798,40.38216 -19.67099,75.7948 -40.71182,107.087 -40.74813,60.60116 -103.39514,100.29434 -175.94149,111.47664 -9.95268,1.5341 -51.29795,2.83903 -58.5,1.84636 z m 115.49999,-47.91 v -14.5 h -88.99999 -89 v 14.5 14.5 h 89 88.99999 z m 33,-40 v -14.5 h -122.99999 -123 v 14.5 14.5 h 123 122.99999 z m 38,-42.5 v -16 H 260.14979 99.14978 v 16 16 h 161.00001 160.99999 z m -234.75443,-142.72326 0.25444,-108.72325 10,-6.75257 c 17.5376,-11.8424 36.34413,-20.81606 52.28424,-24.947777 11.12294,-2.8831 31.93732,-3.14384 42.52756,-0.53275 20.87369,5.146547 32.13649,17.343507 36.68718,39.730097 3.3627,16.54239 3.98092,35.78101 3.99112,124.19951 l 0.01,85.75 h 24.04302 24.04302 l -0.32844,-104.75 c -0.36444,-116.23027 -0.15386,-112.31197 -7.16693,-133.35708 -4.88839,-14.669297 -10.56475,-23.857867 -21.59067,-34.949753 -8.15636,-8.205159 -10.84364,-10.214338 -19,-14.205577 -11.72459,-5.737321 -21.98579,-8.448306 -37.24929,-9.841168 -32.96358,-3.008071 -66.85329,8.140563 -99.42712,32.70835 -4.66361,3.517379 -8.66925,6.395234 -8.90143,6.395234 -0.23218,0 -0.42215,-7.2 -0.42215,-16 v -16 h -24 -24 v 144.999994 145 h 23.99556 23.99555 z"
       id="path847" />
  </g>
</svg>
